# Blender v2.73 (sub 0) OBJ File: 'perfect.blend'
# www.blender.org
mtllib perfect.mtl
o Cube
v 1.000000 -1.000000 -1.000000
v 1.000000 -1.000000 1.000000
v -1.000000 -1.000000 1.000000
v -1.000000 -1.000000 -1.000000
v 1.000000 1.000000 -0.999999
v 0.999999 1.000000 1.000001
v -1.000000 1.000000 1.000000
v -1.000000 1.000000 -1.000000
vt 0.000000 0.999995
vt -0.000000 -0.000005
vt 1.000000 0.000005
vt 0.000100 1.003325
vt 0.000100 0.000250
vt 1.000050 0.000250
vt 0.003075 0.000100
vt 0.999900 0.000100
vt 0.999900 1.006300
vt 0.000100 0.000100
vt 1.000000 0.000100
vt 1.000000 1.000000
vt 0.000003 0.000100
vt 1.000050 1.003325
vt 0.003075 1.006300
vt 0.000100 1.000000
vn 0.000000 -1.000000 0.000000
vn 0.000000 1.000000 0.000000
vn 1.000000 0.000000 0.000000
vn -0.000000 0.000000 1.000000
vn -1.000000 -0.000000 -0.000000
vn 0.000000 0.000000 -1.000000
usemtl WoodBox
s off
f 2/1/1 3/2/1 4/3/1
f 8/4/2 7/5/2 6/6/2
f 5/7/3 6/8/3 2/9/3
f 6/10/4 7/11/4 3/12/4
f 3/1/5 7/13/5 8/11/5
f 1/12/6 4/1/6 8/2/6
f 1/12/1 2/1/1 4/3/1
f 5/14/2 8/4/2 6/6/2
f 1/15/3 5/7/3 2/9/3
f 2/16/4 6/10/4 3/12/4
f 4/12/5 3/1/5 8/11/5
f 5/3/6 1/12/6 8/2/6
